PathFileType	3	(X/Y/Z)	D:\minhoCalibration\240510\subject5_KPNP\preferred\preferred09.trc
DataRate	CameraRate	NumFrames	NumMarkers	Units	OrigDataRate	OrigDataStartFrame	OrigNumFrames
200.0	200.0	15	10	mm	200.0	370	136	
Frame#	Time	Left_Ankle_Outer1			Left_Ankle_Inner1			Left_Knee_Outer1			Left_Knee_Inner1			Left_Wrist1			Right_Wrist1			Right_Knee_Inner1			Right_Knee_Outer1			Right_Ankle_Inner1			Right_Ankle_Outer1			
		X1	Y1	Z1	X2	Y2	Z2	X3	Y3	Z3	X4	Y4	Z4	X5	Y5	Z5	X6	Y6	Z6	X7	Y7	Z7	X8	Y8	Z8	X9	Y9	Z9	X10	Y10	Z10	
370	1.84	-494.63889	78.444939	-575.39331	-528.53851	94.852478	-537.5426	-328.85724	528.82001	-543.09143	-375.06976	518.01019	-460.70715	-440.45407	962.65674	-737.04303	-509.72421	1182.1587	-492.918	-349.75909	970.31171	-46.626328	-354.53986	1061.8324	-68.849434	-783.81702	916.15027	117.28136	-790.40204	1009.9983	83.145996
371	1.845	-495.04532	78.293793	-575.1889	-529.03729	94.493408	-537.09357	-330.05264	528.61664	-542.45752	-376.27026	517.80164	-460.09451	-443.03793	962.05731	-737.00079	-509.00269	1183.3607	-493.20779	-345.8786	975.48291	-48.537052	-350.37949	1066.1201	-72.431595	-767.24286	932.9837	156.92825	-772.07892	1025.2085	121.2758
372	1.85	-495.51813	78.229645	-574.86066	-529.04065	94.885323	-535.95392	-331.1485	528.74469	-541.84564	-377.54208	517.74457	-459.50739	-446.82938	961.07507	-735.53723	-508.74268	1184.6128	-493.56311	-343.63644	980.1145	-50.531754	-348.02338	1069.8351	-75.68576	-741.81256	949.88654	198.09021	-750.50684	1039.9446	159.61351
373	1.855	-496.00812	78.045525	-574.37274	-529.2796	93.631744	-536.93695	-332.49158	528.74915	-541.26367	-378.74423	517.76996	-459.02713	-448.85703	960.52295	-735.74371	-509.20557	1186.2056	-493.45529	-343.44104	984.16663	-52.643276	-347.36597	1072.9681	-78.649506	-713.72394	965.3562	237.29745	-725.8158	1054.3264	197.37488
374	1.86	-496.9014	77.87719	-573.44464	-530.1712	94.168533	-535.29596	-333.81683	528.91718	-540.67938	-380.37018	518.01685	-458.2879	-451.23743	959.51147	-735.23877	-509.91602	1186.9994	-494.4906	-345.31183	987.64514	-55.023682	-348.45721	1075.4564	-81.227081	-680.72113	979.6712	273.62784	-697.71466	1068.3528	234.21419
375	1.865	-497.03391	77.809723	-573.62848	-530.54572	93.855057	-534.90674	-335.68106	528.92767	-539.67731	-381.59583	518.16284	-457.86609	-453.50452	959.12085	-733.84424	-510.64688	1187.0792	-495.40598	-349.30374	990.38232	-57.19651	-351.37189	1077.5126	-83.184563	-644.18933	993.37299	309.04828	-666.01001	1081.6682	269.18356
376	1.87	-497.44278	77.612869	-573.35944	-531.1167	93.634071	-534.34705	-336.92212	529.24548	-539.35065	-383.12289	518.4588	-457.30396	-455.21942	958.32587	-732.88501	-512.34497	1187.8297	-495.5007	-355.48309	992.84253	-58.515694	-356.08014	1079.3192	-84.366608	-606.71893	1006.5115	343.00739	-630.61755	1094.4456	301.24609
377	1.875	-497.74796	77.430489	-573.15057	-531.38641	93.388855	-533.73511	-338.51172	529.59357	-538.70728	-384.77716	518.72229	-456.73111	-455.53455	958.95038	-732.34784	-514.30664	1188.3748	-495.44595	-362.41357	994.76154	-58.90678	-362.48642	1080.9608	-84.714493	-563.44775	1017.6906	366.63763	-592.20343	1105.228	329.41977
378	1.88	-498.0264	77.191048	-573.0661	-532.05603	92.371765	-534.2417	-340.22147	529.80255	-537.98041	-386.45663	518.89453	-456.24844	-456.95032	958.90985	-730.30341	-516.90991	1189.4507	-493.90182	-370.35242	996.79633	-58.158909	-370.16901	1082.6295	-84.380821	-517.25403	1026.5657	383.12061	-551.17603	1113.9274	352.79089
379	1.885	-498.25635	76.89315	-573.0083	-532.07074	91.847069	-534.79718	-341.80463	530.15601	-537.1759	-388.27493	518.99359	-455.59152	-456.6684	959.61859	-728.89795	-519.06281	1189.2266	-494.04172	-378.79468	999.66113	-56.382408	-378.25986	1085.0532	-83.987617	-469.8942	1031.7828	396.2182	-508.53592	1119.2849	369.76852
380	1.89	-498.57178	76.578247	-572.93988	-532.401	91.31459	-534.96979	-343.3938	530.34576	-536.29779	-389.97833	518.98547	-454.86072	-456.74808	960.03088	-726.44983	-521.45911	1190.0699	-492.49927	-386.97568	1003.5051	-54.3829	-386.25485	1088.8776	-83.420395	-428.29752	1037.1414	402.80829	-467.31073	1121.3204	380.24158
381	1.895	-498.93225	76.220428	-572.8653	-533.034	91.164932	-534.1604	-344.81641	530.46985	-535.35968	-391.60898	518.82593	-454.06094	-456.52798	960.77429	-723.54169	-523.6521	1190.5295	-491.04971	-392.7168	1008.4735	-52.596687	-393.05637	1094.3423	-82.070374	-405.36319	1035.921	399.31299	-447.88693	1122.746	377.81729
382	1.9	-499.42081	75.906479	-572.66144	-533.55243	90.415611	-533.71979	-346.31665	530.5531	-534.21887	-393.18878	518.64996	-452.99905	-455.39215	961.37646	-720.67712	-525.9942	1190.8403	-488.43979	-394.01733	1014.1803	-50.951435	-395.23801	1100.4194	-80.5214	-397.04489	1033.0858	395.10501	-439.09204	1121.3514	378.37628
383	1.905	-499.55576	75.687248	-572.68567	-533.99969	89.993904	-533.8576	-347.99863	530.62018	-532.76764	-394.81979	518.34906	-451.45789	-454.71658	961.2428	-717.21667	-528.47766	1189.9695	-486.34384	-390.97403	1020.3082	-49.806854	-394.71576	1106.4615	-78.576256	-395.80069	1028.6575	395.32962	-438.70004	1117.1609	381.01974
384	1.91	-499.5957	75.57093	-572.54376	-533.95276	89.334778	-534.66412	-349.66501	530.6756	-530.87738	-396.48346	518.03992	-449.60995	-453.81601	961.56897	-713.86993	-530.35266	1190.3962	-484.07156	-387.94299	1025.1101	-49.347885	-394.44904	1110.7133	-77.023232	-396.11246	1027.4493	398.39853	-443.54453	1114.2611	382.61456
